HIERARCHY
ROOT Hips
{
	OFFSET 0.000000 100.052002 0.000000
	CHANNELS 6 Xposition Yposition Zposition Xrotation Yrotation Zrotation
	JOINT Spine
	{
		OFFSET 0.000000 9.717300 -1.180200
		CHANNELS 6 Xposition Yposition Zposition Xrotation Yrotation Zrotation
		JOINT Spine1
		{
			OFFSET 0.000000 11.336784 -1.376941
			CHANNELS 3 Xrotation Yrotation Zrotation
			JOINT Spine2
			{
				OFFSET 0.000000 12.956383 -1.573654
				CHANNELS 3 Xrotation Yrotation Zrotation
				JOINT Neck
				{
					OFFSET 0.000000 14.575882 -1.770355
					CHANNELS 6 Xposition Yposition Zposition Xrotation Yrotation Zrotation
					JOINT Head
					{
						OFFSET 0.000000 6.720200 1.972200
						CHANNELS 6 Xposition Yposition Zposition Xrotation Yrotation Zrotation
						JOINT HeadTop_End
						{
							OFFSET 0.000000 20.999802 6.162800
							CHANNELS 6 Xposition Yposition Zposition Xrotation Yrotation Zrotation
							End Site
							{
								OFFSET 0.000000 21.885422 0.000000
							}
						}
					}
				}
				JOINT LeftShoulder
				{
					OFFSET 6.140200 12.877686 -1.799413
					CHANNELS 6 Xposition Yposition Zposition Xrotation Yrotation Zrotation
					JOINT LeftArm
					{
						OFFSET 12.558889 -3.380020 -0.058110
						CHANNELS 3 Xrotation Yrotation Zrotation
						JOINT LeftForeArm
						{
							OFFSET 25.560802 0.000000 0.000000
							CHANNELS 3 Xrotation Yrotation Zrotation
							JOINT LeftHand
							{
								OFFSET 23.404095 0.000000 0.000000
								CHANNELS 3 Xrotation Yrotation Zrotation
								JOINT LeftHandThumb1
								{
									OFFSET 4.128799 -1.207092 2.573364
									CHANNELS 6 Xposition Yposition Zposition Xrotation Yrotation Zrotation
									JOINT LeftHandThumb2
									{
										OFFSET 3.106247 -1.793396 1.793392
										CHANNELS 6 Xposition Yposition Zposition Xrotation Yrotation Zrotation
										JOINT LeftHandThumb3
										{
											OFFSET 2.788620 -1.610016 1.610011
											CHANNELS 6 Xposition Yposition Zposition Xrotation Yrotation Zrotation
											JOINT LeftHandThumb4
											{
												OFFSET 2.332939 -1.346924 1.346924
												CHANNELS 6 Xposition Yposition Zposition Xrotation Yrotation Zrotation
												End Site
												{
													OFFSET 2.098068 -1.306122 1.721387
												}
											}
										}
									}
								}
								JOINT LeftHandIndex1
								{
									OFFSET 11.999931 -0.333878 2.508170
									CHANNELS 6 Xposition Yposition Zposition Xrotation Yrotation Zrotation
									JOINT LeftHandIndex2
									{
										OFFSET 3.298477 0.000000 0.000000
										CHANNELS 6 Xposition Yposition Zposition Xrotation Yrotation Zrotation
										JOINT LeftHandIndex3
										{
											OFFSET 3.081009 0.000000 0.000000
											CHANNELS 6 Xposition Yposition Zposition Xrotation Yrotation Zrotation
											JOINT LeftHandIndex4
											{
												OFFSET 2.712151 0.000000 0.000000
												CHANNELS 6 Xposition Yposition Zposition Xrotation Yrotation Zrotation
												End Site
												{
													OFFSET 2.712097 -0.000549 -0.016291
												}
											}
										}
									}
								}
								JOINT LeftHandMiddle1
								{
									OFFSET 12.393951 0.000000 0.000000
									CHANNELS 6 Xposition Yposition Zposition Xrotation Yrotation Zrotation
									JOINT LeftHandMiddle2
									{
										OFFSET 3.432213 0.000000 0.000000
										CHANNELS 6 Xposition Yposition Zposition Xrotation Yrotation Zrotation
										JOINT LeftHandMiddle3
										{
											OFFSET 3.160919 0.000000 0.000000
											CHANNELS 6 Xposition Yposition Zposition Xrotation Yrotation Zrotation
											JOINT LeftHandMiddle4
											{
												OFFSET 2.876404 0.000000 0.000000
												CHANNELS 3 Xrotation Yrotation Zrotation
												End Site
												{
													OFFSET 2.876404 0.000000 0.000000
												}
											}
										}
									}
								}
								JOINT LeftHandRing1
								{
									OFFSET 12.360489 -0.116104 -2.298636
									CHANNELS 6 Xposition Yposition Zposition Xrotation Yrotation Zrotation
									JOINT LeftHandRing2
									{
										OFFSET 2.726105 0.000000 0.000000
										CHANNELS 6 Xposition Yposition Zposition Xrotation Yrotation Zrotation
										JOINT LeftHandRing3
										{
											OFFSET 2.620300 0.000000 0.000000
											CHANNELS 6 Xposition Yposition Zposition Xrotation Yrotation Zrotation
											JOINT LeftHandRing4
											{
												OFFSET 2.226906 0.000000 0.000000
												CHANNELS 6 Xposition Yposition Zposition Xrotation Yrotation Zrotation
												End Site
												{
													OFFSET 2.226898 0.000153 0.003196
												}
											}
										}
									}
								}
								JOINT LeftHandPinky1
								{
									OFFSET 10.793266 -0.303589 -4.149957
									CHANNELS 6 Xposition Yposition Zposition Xrotation Yrotation Zrotation
									JOINT LeftHandPinky2
									{
										OFFSET 2.734612 0.000000 0.000000
										CHANNELS 6 Xposition Yposition Zposition Xrotation Yrotation Zrotation
										JOINT LeftHandPinky3
										{
											OFFSET 2.194000 0.000000 0.000000
											CHANNELS 6 Xposition Yposition Zposition Xrotation Yrotation Zrotation
											JOINT LeftHandPinky4
											{
												OFFSET 1.975510 0.000000 0.000000
												CHANNELS 6 Xposition Yposition Zposition Xrotation Yrotation Zrotation
												End Site
												{
													OFFSET 1.975502 -0.000275 -0.005493
												}
											}
										}
									}
								}
							}
						}
					}
				}
				JOINT RightShoulder
				{
					OFFSET -6.140200 12.877701 -1.741290
					CHANNELS 6 Xposition Yposition Zposition Xrotation Yrotation Zrotation
					JOINT RightArm
					{
						OFFSET -12.558887 -3.380020 0.058096
						CHANNELS 3 Xrotation Yrotation Zrotation
						JOINT RightForeArm
						{
							OFFSET -25.571100 0.000000 -0.000001
							CHANNELS 3 Xrotation Yrotation Zrotation
							JOINT RightHand
							{
								OFFSET -23.401703 0.000000 -0.000001
								CHANNELS 3 Xrotation Yrotation Zrotation
								JOINT RightHandThumb1
								{
									OFFSET -4.237885 -1.241806 2.593891
									CHANNELS 6 Xposition Yposition Zposition Xrotation Yrotation Zrotation
									JOINT RightHandThumb2
									{
										OFFSET -3.173721 -1.832352 1.832350
										CHANNELS 6 Xposition Yposition Zposition Xrotation Yrotation Zrotation
										JOINT RightHandThumb3
										{
											OFFSET -2.734779 -1.578934 1.578928
											CHANNELS 6 Xposition Yposition Zposition Xrotation Yrotation Zrotation
											JOINT RightHandThumb4
											{
												OFFSET -2.254745 -1.301773 1.301779
												CHANNELS 6 Xposition Yposition Zposition Xrotation Yrotation Zrotation
												End Site
												{
													OFFSET -2.004616 -1.260025 1.693210
												}
											}
										}
									}
								}
								JOINT RightHandIndex1
								{
									OFFSET -12.582405 -0.171967 2.675169
									CHANNELS 6 Xposition Yposition Zposition Xrotation Yrotation Zrotation
									JOINT RightHandIndex2
									{
										OFFSET -3.117424 0.000000 0.000000
										CHANNELS 6 Xposition Yposition Zposition Xrotation Yrotation Zrotation
										JOINT RightHandIndex3
										{
											OFFSET -2.856110 0.000000 0.000000
											CHANNELS 6 Xposition Yposition Zposition Xrotation Yrotation Zrotation
											JOINT RightHandIndex4
											{
												OFFSET -2.534607 0.000000 0.000000
												CHANNELS 6 Xposition Yposition Zposition Xrotation Yrotation Zrotation
												End Site
												{
													OFFSET -2.534599 -0.000092 -0.005299
												}
											}
										}
									}
								}
								JOINT RightHandMiddle1
								{
									OFFSET -12.213303 0.000000 -0.000000
									CHANNELS 6 Xposition Yposition Zposition Xrotation Yrotation Zrotation
									JOINT RightHandMiddle2
									{
										OFFSET -3.479240 0.000000 0.000000
										CHANNELS 6 Xposition Yposition Zposition Xrotation Yrotation Zrotation
										JOINT RightHandMiddle3
										{
											OFFSET -3.226028 0.000000 0.000000
											CHANNELS 6 Xposition Yposition Zposition Xrotation Yrotation Zrotation
											JOINT RightHandMiddle4
											{
												OFFSET -2.928001 0.000000 0.000000
												CHANNELS 6 Xposition Yposition Zposition Xrotation Yrotation Zrotation
												End Site
												{
													OFFSET -2.927994 -0.000046 -0.002500
												}
											}
										}
									}
								}
								JOINT RightHandRing1
								{
									OFFSET -12.155838 -0.109528 -2.139221
									CHANNELS 6 Xposition Yposition Zposition Xrotation Yrotation Zrotation
									JOINT RightHandRing2
									{
										OFFSET -2.821602 0.000000 0.000000
										CHANNELS 6 Xposition Yposition Zposition Xrotation Yrotation Zrotation
										JOINT RightHandRing3
										{
											OFFSET -2.687714 0.000000 0.000000
											CHANNELS 6 Xposition Yposition Zposition Xrotation Yrotation Zrotation
											JOINT RightHandRing4
											{
												OFFSET -2.368401 0.000000 0.000000
												CHANNELS 6 Xposition Yposition Zposition Xrotation Yrotation Zrotation
												End Site
												{
													OFFSET -2.368408 0.000122 0.004098
												}
											}
										}
									}
								}
								JOINT RightHandPinky1
								{
									OFFSET -10.912514 -0.136993 -4.154601
									CHANNELS 6 Xposition Yposition Zposition Xrotation Yrotation Zrotation
									JOINT RightHandPinky2
									{
										OFFSET -2.640511 0.000000 0.000000
										CHANNELS 6 Xposition Yposition Zposition Xrotation Yrotation Zrotation
										JOINT RightHandPinky3
										{
											OFFSET -2.149010 0.000000 0.000000
											CHANNELS 6 Xposition Yposition Zposition Xrotation Yrotation Zrotation
											JOINT RightHandPinky4
											{
												OFFSET -1.888405 0.000000 0.000000
												CHANNELS 6 Xposition Yposition Zposition Xrotation Yrotation Zrotation
												End Site
												{
													OFFSET -1.888397 -0.000076 -0.002499
												}
											}
										}
									}
								}
							}
						}
					}
				}
			}
		}
	}
	JOINT LeftUpLeg
	{
		OFFSET 8.078200 -5.402397 -0.535900
		CHANNELS 6 Xposition Yposition Zposition Xrotation Yrotation Zrotation
		JOINT LeftLeg
		{
			OFFSET 0.166247 -42.704498 -2.695473
			CHANNELS 3 Xrotation Yrotation Zrotation
			JOINT LeftFoot
			{
				OFFSET -0.166255 -42.074757 -2.882279
				CHANNELS 3 Xrotation Yrotation Zrotation
				JOINT LeftToeBase
				{
					OFFSET 1.133370 -9.116460 13.321884
					CHANNELS 3 Xrotation Yrotation Zrotation
					JOINT LeftToe_End
					{
						OFFSET 0.591577 -0.054453 6.177401
						CHANNELS 3 Xrotation Yrotation Zrotation
						End Site
						{
							OFFSET 0.591577 -0.054453 6.177402
						}
					}
				}
			}
		}
	}
	JOINT RightUpLeg
	{
		OFFSET -8.078200 -5.402397 -0.751800
		CHANNELS 6 Xposition Yposition Zposition Xrotation Yrotation Zrotation
		JOINT RightLeg
		{
			OFFSET -0.166221 -42.704521 -2.464558
			CHANNELS 3 Xrotation Yrotation Zrotation
			JOINT RightFoot
			{
				OFFSET 0.166220 -42.074753 -2.968993
				CHANNELS 3 Xrotation Yrotation Zrotation
				JOINT RightToeBase
				{
					OFFSET -1.133402 -9.116828 13.416508
					CHANNELS 3 Xrotation Yrotation Zrotation
					JOINT RightToe_End
					{
						OFFSET -0.591581 -0.054615 6.151378
						CHANNELS 3 Xrotation Yrotation Zrotation
						End Site
						{
							OFFSET -0.591581 -0.054615 6.151378
						}
					}
				}
			}
		}
	}
}
MOTION
Frames: 4
Frame Time: 0.033333
5.320353 98.246208 78.822914 -0.107787 -3.336142 5.890609 -0.000002 9.717303 -1.180200 4.098659 0.194697 -0.560272 1.458299 0.496156 -1.819575 -3.022576 0.501855 -2.318662 -0.000001 14.575862 -1.770349 -4.659456 0.378229 -3.462983 -0.000000 6.720200 1.972197 1.749218 0.802757 0.595684 -0.000000 20.999771 6.162815 0.000000 -0.000000 0.000000 6.140199 12.877708 -1.799405 5.816401 -13.328316 -8.323650 10.162982 7.160369 -71.826153 -0.000008 -26.547451 0.000008 38.804265 -5.730795 -7.175990 4.128802 -1.207089 2.573368 26.270443 6.879410 33.110175 3.106247 -1.793406 1.793396 -2.148745 28.579767 -16.236808 2.788618 -1.610015 1.610011 7.740154 -12.803722 1.631742 2.332935 -1.346935 1.346916 -0.000003 0.000002 0.000002 11.999949 -0.333869 2.508168 9.243354 1.296720 -11.857301 3.298466 0.000016 0.000004 0.266044 2.466434 -16.828642 3.081018 0.000006 -0.000004 -0.020267 0.179725 -3.862969 2.712140 -0.000017 -0.000002 0.000001 0.000000 0.000001 12.393961 0.000004 0.000005 0.596311 7.556926 -17.770636 3.432218 -0.000008 0.000006 0.605802 3.428720 -26.943590 3.160934 -0.000015 -0.000001 0.267018 1.831562 -15.828741 -0.000001 -0.000001 -0.000002 12.360508 -0.116100 -2.298636 0.738398 7.794994 -34.888470 2.726108 -0.000016 0.000004 0.411212 1.974803 -16.891439 2.620297 -0.000018 0.000004 0.290099 1.185080 -12.302594 2.226898 -0.000016 0.000003 0.000001 0.000001 0.000000 10.793274 -0.303576 -4.149956 3.594808 13.456613 -31.985827 2.734616 -0.000013 -0.000002 0.484425 2.674417 -29.032877 2.194007 0.000010 0.000003 0.073545 1.523560 -6.656243 1.975495 -0.000005 -0.000007 0.000001 0.000000 -0.000000 -6.140198 12.877696 -1.741278 -0.344557 10.014665 -0.556004 3.234192 10.929329 73.706709 0.000023 46.954873 -0.000022 31.067358 25.003875 -23.134558 -4.237875 -1.241812 2.593879 15.788903 -6.807180 -13.950936 -3.173710 -1.832348 1.832353 3.999664 -5.178451 -14.705066 -2.734795 -1.578908 1.578938 -13.901520 7.933686 9.029115 -2.254754 -1.301766 1.301783 0.000002 -0.000004 0.000000 -12.582401 -0.171979 2.675161 -0.874569 1.694935 9.510401 -3.117436 0.000009 -0.000005 0.620765 -3.361015 26.380043 -2.856111 0.000010 0.000006 -0.171473 -0.552591 17.067982 -2.534594 0.000001 0.000004 -0.000002 0.000001 0.000001 -12.213314 -0.000005 -0.000009 -0.896532 -3.694842 22.037373 -3.479263 0.000006 0.000008 1.186770 -4.377395 38.115840 -3.226022 -0.000016 -0.000005 0.824955 -3.080346 31.139929 -2.928009 0.000000 0.000013 0.000001 0.000005 -0.000000 -12.155834 -0.109522 -2.139223 1.465710 -8.907966 39.997386 -2.821624 0.000010 0.000005 0.722973 -2.611818 23.995510 -2.687697 -0.000023 0.000007 -0.128148 -0.229731 20.410781 -2.368406 -0.000012 -0.000001 0.000002 -0.000000 0.000002 -10.912512 -0.136994 -4.154605 2.673894 -10.503222 45.102362 -2.640520 -0.000014 -0.000003 1.612796 -4.332467 49.092521 -2.148989 -0.000027 0.000010 -0.378739 -2.603878 43.269631 -1.888426 -0.000017 0.000008 0.000001 0.000001 0.000002 8.078201 -5.402407 -0.535900 -13.203694 5.836415 -9.216453 17.500850 0.842052 -0.047831 -2.925542 -0.859226 4.429269 -3.340403 0.000004 -0.000000 0.000000 -0.000000 0.000000 -8.078202 -5.402408 -0.751807 -22.962809 -3.540668 -7.879071 64.218456 8.011208 -5.234000 9.725315 -12.088641 5.518876 -0.221017 -0.000005 -0.000002 -0.000003 -0.000000 -0.000001 
5.122865 98.577789 83.646202 0.401451 -2.460689 5.314922 0.000000 9.717310 -1.180209 3.813115 -0.241312 -0.268396 1.355006 -0.497107 -1.470822 -3.142096 -0.485743 -1.988189 -0.000001 14.575867 -1.770354 -4.119568 0.593854 -3.337276 0.000001 6.720206 1.972201 2.018194 1.034602 0.681500 -0.000000 20.999817 6.162793 -0.000000 0.000000 -0.000000 6.140196 12.877680 -1.799405 5.913063 -14.544203 -7.442003 7.812218 2.464750 -69.973007 0.000000 -27.929487 -0.000019 36.614814 -5.592919 -0.464125 4.128782 -1.207102 2.573363 26.416032 6.872530 32.433717 3.106229 -1.793414 1.793390 -2.536876 28.056085 -16.028285 2.788617 -1.610025 1.610003 8.415633 -13.223683 5.050783 2.332923 -1.346933 1.346913 -0.000001 0.000001 0.000003 11.999917 -0.333875 2.508173 9.049837 1.435731 -8.655618 3.298486 0.000012 0.000005 0.266728 2.468684 -16.851765 3.081011 -0.000000 -0.000005 -0.020200 0.182068 -3.886238 2.712144 -0.000014 -0.000001 0.000003 0.000000 -0.000001 12.393927 -0.000017 0.000008 0.495868 7.252468 -15.772071 3.432192 0.000017 0.000007 0.604428 3.425898 -26.912158 3.160944 0.000014 -0.000000 0.266050 1.828511 -15.796785 0.000003 -0.000001 -0.000001 12.360478 -0.116120 -2.298635 0.678898 7.650885 -33.200853 2.726103 -0.000010 -0.000000 0.409841 1.971518 -16.855800 2.620294 -0.000012 0.000005 0.289017 1.181739 -12.267075 2.226894 -0.000027 0.000004 0.000000 0.000000 -0.000002 10.793260 -0.303594 -4.149951 3.235778 13.097505 -30.658185 2.734622 -0.000002 0.000000 0.485075 2.675893 -29.048798 2.193984 0.000013 0.000006 0.073837 1.525150 -6.672183 1.975509 -0.000028 0.000005 0.000002 0.000001 0.000000 -6.140201 12.877703 -1.741280 -0.409471 9.853639 0.124509 4.832208 7.997677 74.552799 0.000027 44.256183 -0.000043 35.408363 25.581541 -23.119263 -4.237873 -1.241804 2.593875 16.220253 -7.449274 -13.709658 -3.173726 -1.832349 1.832346 4.301631 -4.473942 -14.984945 -2.734800 -1.578908 1.578937 -13.818248 7.659286 9.051781 -2.254736 -1.301760 1.301777 0.000002 -0.000005 -0.000001 -12.582392 -0.171987 2.675161 -0.738493 1.534026 8.623527 -3.117433 0.000002 0.000000 0.623931 -3.367420 26.450720 -2.856111 0.000005 0.000001 -0.170802 -0.559902 17.138461 -2.534595 0.000003 0.000005 -0.000001 0.000002 0.000001 -12.213310 0.000016 -0.000002 -0.698715 -3.985569 20.829893 -3.479271 -0.000000 0.000003 1.184783 -4.374750 38.082474 -3.226048 -0.000011 0.000003 0.823306 -3.077604 31.107858 -2.928011 -0.000042 0.000004 0.000001 -0.000004 0.000001 -12.155839 -0.109522 -2.139224 1.534587 -9.001962 39.112262 -2.821619 0.000006 -0.000001 0.720932 -2.608277 23.954880 -2.687711 -0.000005 0.000007 -0.128681 -0.225619 20.370233 -2.368417 0.000001 0.000004 -0.000000 -0.000002 0.000000 -10.912493 -0.137006 -4.154608 2.727152 -10.603537 44.472960 -2.640510 0.000001 0.000003 1.618597 -4.338399 49.175193 -2.149005 -0.000014 0.000004 -0.375705 -2.612651 43.351880 -1.888395 -0.000034 0.000003 -0.000000 0.000002 -0.000001 8.078201 -5.402394 -0.535906 -10.004625 6.778970 -8.377180 16.705784 -1.725367 -0.282686 -4.945927 -0.936112 4.613388 -3.989406 0.000001 0.000003 -0.000000 -0.000000 0.000000 -8.078200 -5.402379 -0.751809 -28.213729 -2.423812 -5.979403 58.456748 9.264335 -4.677465 5.343741 -14.176163 5.359424 -6.756751 -0.298946 2.456884 0.000002 -0.000002 0.000001 
4.815096 98.662598 88.655380 0.893544 -0.803416 4.252254 -0.000001 9.717292 -1.180197 3.196058 -0.687452 0.249200 1.426026 -1.562715 -1.071659 -3.096212 -1.540368 -1.624969 0.000001 14.575896 -1.770352 -3.707225 0.665250 -3.087832 0.000001 6.720190 1.972207 2.220045 1.162946 0.808371 0.000000 20.999786 6.162799 -0.000000 0.000000 0.000000 6.140201 12.877695 -1.799407 6.207578 -16.933330 -5.495525 6.039678 -0.425205 -68.529337 -0.000002 -30.447347 0.000003 34.228547 -6.836849 3.984513 4.128803 -1.207078 2.573368 26.567735 6.916533 31.698119 3.106233 -1.793408 1.793401 -3.040835 27.404174 -15.589644 2.788618 -1.610023 1.610009 8.928063 -13.570506 7.542440 2.332927 -1.346940 1.346923 -0.000000 0.000002 0.000002 11.999927 -0.333866 2.508166 8.799598 1.626609 -5.380761 3.298474 -0.000007 -0.000003 0.267515 2.471332 -16.879344 3.081019 -0.000017 0.000000 -0.020107 0.184937 -3.914374 2.712151 -0.000031 -0.000002 0.000002 0.000000 0.000000 12.393931 -0.000017 -0.000004 0.429734 7.023632 -13.981830 3.432216 0.000010 0.000004 0.601395 3.419592 -26.841938 3.160940 -0.000006 -0.000002 0.263945 1.821798 -15.726405 0.000000 -0.000000 0.000001 12.360476 -0.116096 -2.298642 0.684160 7.620679 -31.715604 2.726081 -0.000021 0.000007 0.409817 1.971454 -16.855245 2.620300 -0.000002 -0.000000 0.289023 1.181740 -12.267002 2.226899 -0.000004 0.000001 -0.000002 0.000000 -0.000000 10.793261 -0.303575 -4.149962 2.887244 12.730035 -29.262579 2.734582 -0.000007 -0.000003 0.489323 2.685311 -29.151736 2.194003 0.000010 0.000005 0.075705 1.535330 -6.774935 1.975493 -0.000014 0.000002 -0.000003 0.000000 0.000003 -6.140203 12.877745 -1.741289 -0.526062 9.046720 1.167768 6.731128 4.530364 74.981946 -0.000014 41.125812 -0.000007 39.271119 24.587614 -22.108218 -4.237864 -1.241820 2.593879 16.600558 -7.531713 -13.436023 -3.173726 -1.832348 1.832348 4.501973 -4.100129 -15.180876 -2.734792 -1.578913 1.578932 -13.753949 7.448280 9.069764 -2.254766 -1.301761 1.301781 0.000000 -0.000002 0.000002 -12.582393 -0.171983 2.675168 -0.636121 1.259302 8.091863 -3.117443 0.000001 -0.000005 0.631033 -3.381607 26.608209 -2.856116 0.000014 0.000006 -0.169238 -0.576245 17.295490 -2.534616 0.000001 0.000005 -0.000001 -0.000001 0.000001 -12.213305 0.000024 0.000003 -0.517038 -4.330209 19.898650 -3.479262 0.000005 -0.000006 1.183214 -4.372650 38.056253 -3.226024 -0.000012 -0.000011 0.822011 -3.075513 31.083334 -2.928020 -0.000014 -0.000002 -0.000000 0.000001 0.000001 -12.155833 -0.109531 -2.139228 1.557693 -9.036734 38.673491 -2.821598 -0.000004 -0.000002 0.716539 -2.600449 23.864874 -2.687710 0.000001 -0.000000 -0.129916 -0.216474 20.280403 -2.368403 0.000014 -0.000006 0.000002 -0.000002 0.000001 -10.912491 -0.137005 -4.154603 2.783438 -10.698924 44.076123 -2.640515 0.000011 -0.000010 1.620549 -4.340415 49.203067 -2.149012 -0.000015 0.000002 -0.374661 -2.615640 43.379621 -1.888406 -0.000013 0.000002 0.000001 0.000002 0.000000 8.078200 -5.402404 -0.535905 -7.142754 7.793648 -6.805754 16.557336 -4.922525 -0.489060 -7.299699 -1.064612 4.751773 -4.838819 0.000001 0.000001 -0.000000 -0.000000 0.000000 -8.078199 -5.402394 -0.751798 -32.765582 -2.757893 -4.222979 49.369420 9.385231 -4.591373 5.055449 -16.635844 6.215499 -6.343510 0.009147 -0.081702 -0.000002 -0.000000 0.000000 
4.349702 98.520302 93.799088 1.202372 1.198104 2.828657 0.000000 9.717300 -1.180201 2.564811 -1.116042 0.828711 1.692851 -2.578175 -0.671184 -2.864225 -2.553346 -1.279239 -0.000001 14.575889 -1.770357 -3.770750 0.517275 -2.505526 -0.000000 6.720219 1.972189 2.141402 1.156129 1.104075 -0.000000 20.999802 6.162797 0.000000 -0.000000 0.000000 6.140197 12.877703 -1.799421 6.779596 -19.210213 -2.759559 4.112301 -2.105746 -67.120208 0.000001 -33.558594 0.000014 30.746008 -9.825692 6.208171 4.128777 -1.207079 2.573368 26.725618 7.004660 30.911544 3.106254 -1.793408 1.793397 -3.524213 26.702929 -15.393691 2.788610 -1.610039 1.609999 9.031049 -14.365515 8.154569 2.332933 -1.346934 1.346923 -0.000001 0.000003 -0.000000 11.999915 -0.333863 2.508168 8.331839 1.821361 -3.827969 3.298467 0.000013 0.000003 0.267507 2.471318 -16.879102 3.081007 -0.000015 -0.000002 -0.020116 0.184936 -3.914486 2.712149 0.000000 -0.000001 -0.000000 -0.000000 0.000000 12.393940 0.000024 0.000001 0.408804 6.941184 -13.486763 3.432198 0.000027 0.000011 0.601786 3.420427 -26.851374 3.160914 0.000003 -0.000003 0.264215 1.822668 -15.735526 -0.000002 -0.000000 0.000001 12.360471 -0.116094 -2.298638 0.726301 7.686386 -31.220272 2.726089 -0.000023 0.000001 0.409869 1.971535 -16.856234 2.620287 -0.000005 0.000003 0.289067 1.181878 -12.268487 2.226898 -0.000031 -0.000003 0.000000 -0.000001 0.000000 10.793262 -0.303551 -4.149952 2.773767 12.580886 -28.927453 2.734597 -0.000024 0.000001 0.489247 2.685139 -29.149635 2.194009 0.000005 -0.000000 0.075663 1.535143 -6.772858 1.975502 -0.000021 0.000004 0.000000 0.000001 -0.000003 -6.140202 12.877698 -1.741291 -0.704314 7.396043 3.021722 9.034236 1.339554 74.455694 -0.000010 37.809649 0.000014 41.804962 22.752897 -19.802993 -4.237888 -1.241824 2.593877 16.806903 -8.236394 -13.441943 -3.173719 -1.832342 1.832339 4.817894 -3.171489 -15.451756 -2.734812 -1.578906 1.578937 -13.659265 7.139051 9.097089 -2.254732 -1.301770 1.301793 0.000003 -0.000008 0.000001 -12.582416 -0.171998 2.675170 -0.421779 1.195385 6.423041 -3.117430 -0.000001 -0.000002 0.641751 -3.402905 26.844469 -2.856105 0.000009 0.000003 -0.166828 -0.600744 17.531055 -2.534582 0.000031 0.000006 -0.000002 0.000001 -0.000001 -12.213326 0.000009 -0.000004 -0.323726 -4.590292 17.917063 -3.479242 0.000018 0.000007 1.181827 -4.370815 38.033157 -3.226046 -0.000004 0.000007 0.820929 -3.073711 31.062218 -2.928013 0.000010 0.000007 -0.000002 -0.000004 0.000002 -12.155849 -0.109531 -2.139217 1.582022 -9.086901 37.317476 -2.821615 -0.000007 0.000001 0.711611 -2.591767 23.764967 -2.687709 0.000015 0.000019 -0.131268 -0.206284 20.180653 -2.368398 -0.000014 -0.000015 -0.000000 0.000003 0.000002 -10.912528 -0.136993 -4.154601 2.888952 -10.928175 42.744147 -2.640525 0.000015 -0.000001 1.623833 -4.343764 49.249974 -2.148993 0.000002 0.000001 -0.372939 -2.620618 43.426281 -1.888404 -0.000032 -0.000004 -0.000000 0.000001 -0.000001 8.078202 -5.402391 -0.535909 -4.807643 8.822776 -4.288018 17.571421 -7.015350 -0.634272 -9.727417 -3.995052 4.496171 -6.200963 -0.000000 0.000002 -0.000000 0.000000 0.000000 -8.078200 -5.402383 -0.751814 -36.734694 -4.645311 -2.793733 37.937705 9.084437 -4.748449 5.848472 -16.608616 6.960545 -1.654552 -0.000012 -0.000001 0.000000 0.000001 -0.000000 
